<?xml version="1.0" encoding="UTF-8"?><svg id="Layer_2" xmlns="http://www.w3.org/2000/svg" viewBox="0 0 1021.9 228.56"><defs><style>.cls-1{fill:#fff;}.cls-2{fill:#94adf2;opacity:.8;}.cls-3{fill:#2f3e73;}</style></defs><g id="Layer_1-2"><path class="cls-3" d="M114.28,228.56H0V114.28C0,51.17,51.17,0,114.28,0h0c63.12,0,114.28,51.17,114.28,114.28h0c0,63.12-51.17,114.28-114.28,114.28Z"/><circle class="cls-2" cx="288.22" cy="114.28" r="114.28"/><g><path class="cls-1" d="M502.29,148.79c-6.52,0-12.57-1.07-18.16-3.2-5.59-2.13-10.44-5.17-14.54-9.11-4.1-3.94-7.3-8.57-9.59-13.88-2.29-5.31-3.44-11.14-3.44-17.5s1.15-12.19,3.44-17.5c2.29-5.31,5.51-9.94,9.65-13.88,4.14-3.94,8.99-6.98,14.54-9.11,5.55-2.13,11.62-3.2,18.22-3.2,7.32,0,13.94,1.27,19.85,3.8,5.91,2.53,10.88,6.26,14.9,11.16l-12.55,11.58c-2.9-3.3-6.11-5.77-9.65-7.42-3.54-1.65-7.4-2.47-11.58-2.47-3.94,0-7.56,.64-10.86,1.93-3.3,1.29-6.15,3.14-8.57,5.55-2.41,2.41-4.28,5.27-5.61,8.57-1.33,3.3-1.99,6.96-1.99,10.98s.66,7.68,1.99,10.98c1.33,3.3,3.2,6.15,5.61,8.57,2.41,2.41,5.27,4.27,8.57,5.55,3.3,1.29,6.92,1.93,10.86,1.93,4.18,0,8.04-.82,11.58-2.47,3.54-1.65,6.76-4.16,9.65-7.54l12.55,11.58c-4.02,4.91-8.99,8.65-14.9,11.22-5.91,2.57-12.57,3.86-19.97,3.86Z"/><path class="cls-1" d="M588.45,81.46c5.15,0,9.75,1.03,13.82,3.08,4.06,2.05,7.26,5.19,9.59,9.41,2.33,4.22,3.5,9.63,3.5,16.23v37.17h-18.82v-34.27c0-5.23-1.15-9.09-3.44-11.58-2.29-2.49-5.53-3.74-9.71-3.74-2.98,0-5.65,.62-8.02,1.87-2.37,1.25-4.22,3.16-5.55,5.73-1.33,2.58-1.99,5.87-1.99,9.9v32.1h-18.83V57.81h18.83v42.6l-4.22-5.43c2.33-4.34,5.67-7.68,10.02-10.02,4.34-2.33,9.29-3.5,14.84-3.5Z"/><path class="cls-1" d="M652.41,148.31c-5.07,0-9.41-.87-13.03-2.59-3.62-1.73-6.4-4.08-8.33-7.06-1.93-2.98-2.9-6.31-2.9-10.02s.94-7.24,2.84-10.14c1.89-2.9,4.89-5.17,8.99-6.82,4.1-1.65,9.45-2.47,16.05-2.47h17.26v10.98h-15.21c-4.43,0-7.46,.72-9.11,2.17-1.65,1.45-2.47,3.26-2.47,5.43,0,2.41,.95,4.33,2.84,5.73,1.89,1.41,4.48,2.11,7.78,2.11s5.95-.74,8.45-2.23c2.49-1.49,4.3-3.68,5.43-6.58l2.9,8.69c-1.37,4.18-3.86,7.36-7.48,9.53s-8.29,3.26-14,3.26Zm19.79-.97v-12.67l-1.21-2.78v-22.69c0-4.02-1.23-7.16-3.68-9.41-2.46-2.25-6.21-3.38-11.28-3.38-3.46,0-6.86,.54-10.2,1.63-3.34,1.09-6.17,2.55-8.51,4.4l-6.76-13.15c3.54-2.49,7.8-4.42,12.79-5.79,4.99-1.37,10.05-2.05,15.2-2.05,9.9,0,17.58,2.33,23.05,7,5.47,4.67,8.21,11.95,8.21,21.84v37.05h-17.62Z"/><path class="cls-1" d="M699.11,98.35v-14.48h45.01v14.48h-45.01Zm34.27,49.96c-7.64,0-13.6-1.95-17.86-5.85-4.27-3.9-6.4-9.71-6.4-17.44v-56.96h18.82v56.72c0,2.74,.72,4.85,2.17,6.33,1.45,1.49,3.42,2.23,5.91,2.23,2.98,0,5.51-.8,7.6-2.41l5.07,13.27c-1.93,1.37-4.24,2.39-6.94,3.08-2.7,.68-5.49,1.03-8.39,1.03Z"/><path class="cls-1" d="M813.5,148.31c-5.07,0-9.41-.87-13.03-2.59-3.62-1.73-6.4-4.08-8.33-7.06-1.93-2.98-2.9-6.31-2.9-10.02s.94-7.24,2.84-10.14c1.89-2.9,4.89-5.17,8.99-6.82,4.1-1.65,9.45-2.47,16.05-2.47h17.26v10.98h-15.21c-4.43,0-7.46,.72-9.11,2.17-1.65,1.45-2.47,3.26-2.47,5.43,0,2.41,.95,4.33,2.84,5.73,1.89,1.41,4.48,2.11,7.78,2.11s5.95-.74,8.45-2.23c2.49-1.49,4.3-3.68,5.43-6.58l2.9,8.69c-1.37,4.18-3.86,7.36-7.48,9.53s-8.29,3.26-14,3.26Zm19.79-.97v-12.67l-1.21-2.78v-22.69c0-4.02-1.23-7.16-3.68-9.41-2.46-2.25-6.21-3.38-11.28-3.38-3.46,0-6.86,.54-10.2,1.63-3.34,1.09-6.17,2.55-8.51,4.4l-6.76-13.15c3.54-2.49,7.8-4.42,12.79-5.79,4.99-1.37,10.05-2.05,15.2-2.05,9.9,0,17.58,2.33,23.05,7,5.47,4.67,8.21,11.95,8.21,21.84v37.05h-17.62Z"/><path class="cls-1" d="M867.92,170.76V82.42h17.98v13.27l-.36,19.31,1.21,19.19v36.56h-18.83Zm38.37-22.44c-5.47,0-10.26-1.21-14.36-3.62-4.1-2.41-7.3-6.09-9.59-11.04-2.29-4.95-3.44-11.2-3.44-18.76s1.09-13.92,3.26-18.82c2.17-4.91,5.31-8.57,9.41-10.98,4.1-2.41,9.01-3.62,14.72-3.62,6.11,0,11.6,1.39,16.47,4.16,4.87,2.78,8.73,6.66,11.58,11.64,2.85,4.99,4.28,10.86,4.28,17.62s-1.43,12.75-4.28,17.74c-2.86,4.99-6.72,8.85-11.58,11.58-4.87,2.74-10.36,4.1-16.47,4.1Zm-3.26-15.45c3.14,0,5.93-.72,8.39-2.17,2.45-1.45,4.42-3.52,5.91-6.21,1.49-2.69,2.23-5.89,2.23-9.59s-.75-7-2.23-9.65c-1.49-2.65-3.46-4.71-5.91-6.15-2.46-1.45-5.25-2.17-8.39-2.17s-5.95,.72-8.45,2.17c-2.49,1.45-4.46,3.5-5.91,6.15-1.45,2.66-2.17,5.87-2.17,9.65s.72,6.9,2.17,9.59c1.45,2.7,3.42,4.77,5.91,6.21,2.49,1.45,5.31,2.17,8.45,2.17Z"/><path class="cls-1" d="M951.18,170.76V82.42h17.98v13.27l-.36,19.31,1.21,19.19v36.56h-18.83Zm38.37-22.44c-5.47,0-10.26-1.21-14.36-3.62-4.1-2.41-7.3-6.09-9.59-11.04-2.29-4.95-3.44-11.2-3.44-18.76s1.09-13.92,3.26-18.82c2.17-4.91,5.31-8.57,9.41-10.98,4.1-2.41,9.01-3.62,14.72-3.62,6.11,0,11.6,1.39,16.47,4.16,4.87,2.78,8.73,6.66,11.58,11.64,2.85,4.99,4.28,10.86,4.28,17.62s-1.43,12.75-4.28,17.74c-2.86,4.99-6.72,8.85-11.58,11.58-4.87,2.74-10.36,4.1-16.47,4.1Zm-3.26-15.45c3.14,0,5.93-.72,8.39-2.17,2.45-1.45,4.42-3.52,5.91-6.21,1.49-2.69,2.23-5.89,2.23-9.59s-.75-7-2.23-9.65c-1.49-2.65-3.46-4.71-5.91-6.15-2.46-1.45-5.25-2.17-8.39-2.17s-5.95,.72-8.45,2.17c-2.49,1.45-4.46,3.5-5.91,6.15-1.45,2.66-2.17,5.87-2.17,9.65s.72,6.9,2.17,9.59c1.45,2.7,3.42,4.77,5.91,6.21,2.49,1.45,5.31,2.17,8.45,2.17Z"/></g></g></svg>